<svg width="40" height="40" viewBox="0 0 40 40" fill="none" xmlns="http://www.w3.org/2000/svg">
    <path d="M33.3335 3.33398H13.3335C11.5002 3.33398 10.0002 4.83398 10.0002 6.66732V26.6673C10.0002 28.5007 11.5002 30.0007 13.3335 30.0007H33.3335C35.1668 30.0007 36.6668 28.5007 36.6668 26.6673V6.66732C36.6668 4.83398 35.1668 3.33398 33.3335 3.33398ZM19.1668 15.834C19.1668 17.2173 18.0502 18.334 16.6668 18.334H15.0002V20.4173C15.0002 21.1007 14.4335 21.6673 13.7502 21.6673C13.0668 21.6673 12.5002 21.1007 12.5002 20.4173V13.334C12.5002 12.4173 13.2502 11.6673 14.1668 11.6673H16.6668C18.0502 11.6673 19.1668 12.784 19.1668 14.1673V15.834ZM27.5002 19.1673C27.5002 20.5507 26.3835 21.6673 25.0002 21.6673H21.6668C21.2002 21.6673 20.8335 21.3007 20.8335 20.834V12.5007C20.8335 12.034 21.2002 11.6673 21.6668 11.6673H25.0002C26.3835 11.6673 27.5002 12.784 27.5002 14.1673V19.1673ZM34.1668 12.9173C34.1668 13.6007 33.6002 14.1673 32.9168 14.1673H31.6668V15.834H32.9168C33.6002 15.834 34.1668 16.4007 34.1668 17.084C34.1668 17.7673 33.6002 18.334 32.9168 18.334H31.6668V20.4173C31.6668 21.1007 31.1002 21.6673 30.4168 21.6673C29.7335 21.6673 29.1668 21.1007 29.1668 20.4173V13.334C29.1668 12.4173 29.9168 11.6673 30.8335 11.6673H32.9168C33.6002 11.6673 34.1668 12.234 34.1668 12.9173ZM15.0002 15.834H16.6668V14.1673H15.0002V15.834ZM5.00016 10.0007C4.0835 10.0007 3.3335 10.7507 3.3335 11.6673V33.334C3.3335 35.1673 4.8335 36.6673 6.66683 36.6673H28.3335C29.2502 36.6673 30.0002 35.9173 30.0002 35.0007C30.0002 34.084 29.2502 33.334 28.3335 33.334H8.3335C7.41683 33.334 6.66683 32.584 6.66683 31.6673V11.6673C6.66683 10.7507 5.91683 10.0007 5.00016 10.0007ZM23.3335 19.1673H25.0002V14.1673H23.3335V19.1673Z" fill="#607AFF"/>
</svg>