<svg width="14" height="13" viewBox="0 0 14 13" fill="none" xmlns="http://www.w3.org/2000/svg">
    <path d="M2.79309 2.1454H0.384421C0.172085 2.1454 0 1.9732 0 1.76098C0 1.54876 0.172085 1.37656 0.384421 1.37656H2.79309C3.00543 1.37656 3.17752 1.54876 3.17752 1.76098C3.17752 1.9732 3.00543 2.1454 2.79309 2.1454Z" fill="#303045"/>
    <path d="M4.16905 3.52171C3.19809 3.52171 2.4082 2.73183 2.4082 1.76096C2.4082 0.789884 3.19809 0 4.16905 0C5.14001 0 5.92989 0.789884 5.92989 1.76096C5.92989 2.73186 5.14001 3.52171 4.16905 3.52171ZM4.16905 0.76887C3.62204 0.76887 3.17705 1.21395 3.17705 1.76096C3.17705 2.30796 3.62204 2.75284 4.16905 2.75284C4.71605 2.75284 5.16105 2.30796 5.16105 1.76096C5.16105 1.21395 4.71605 0.76887 4.16905 0.76887Z" fill="#303045"/>
    <path d="M12.6847 2.1454H6.93911C6.72677 2.1454 6.55469 1.9732 6.55469 1.76098C6.55469 1.54876 6.72677 1.37656 6.93911 1.37656H12.6846C12.897 1.37656 13.0691 1.54876 13.0691 1.76098C13.0691 1.9732 12.897 2.1454 12.6847 2.1454Z" fill="#303045"/>
    <path d="M9.33116 8.16708C8.36017 8.16708 7.57031 7.37719 7.57031 6.40632C7.57031 5.43545 8.3602 4.64557 9.33116 4.64557C10.3021 4.64557 11.092 5.43545 11.092 6.40632C11.092 7.37719 10.3021 8.16708 9.33116 8.16708ZM9.33116 5.41444C8.78415 5.41444 8.33916 5.85932 8.33916 6.40632C8.33916 6.95332 8.78415 7.39821 9.33116 7.39821C9.87816 7.39821 10.3232 6.95332 10.3232 6.40632C10.3232 5.85932 9.87816 5.41444 9.33116 5.41444Z" fill="#303045"/>
    <path d="M6.56015 6.79072H0.384421C0.172085 6.79072 0 6.61852 0 6.4063C0 6.19408 0.172085 6.02188 0.384421 6.02188H6.56015C6.77249 6.02188 6.94458 6.19408 6.94458 6.4063C6.94458 6.61852 6.77249 6.79072 6.56015 6.79072Z" fill="#303045"/>
    <path d="M12.6853 6.79072H10.7067C10.4944 6.79072 10.3223 6.61852 10.3223 6.4063C10.3223 6.19408 10.4944 6.02188 10.7067 6.02188H12.6853C12.8976 6.02188 13.0697 6.19408 13.0697 6.4063C13.0697 6.61852 12.8976 6.79072 12.6853 6.79072Z" fill="#303045"/>
    <path d="M3.73936 12.8126C2.7684 12.8126 1.97852 12.0227 1.97852 11.0517C1.97852 10.0808 2.7684 9.29089 3.73936 9.29089C4.71031 9.29089 5.5002 10.0808 5.5002 11.0517C5.5002 12.0227 4.71031 12.8126 3.73936 12.8126ZM3.73936 10.0598C3.19236 10.0598 2.74736 10.5046 2.74736 11.0517C2.74736 11.5987 3.19236 12.0437 3.73936 12.0437C4.28636 12.0437 4.73136 11.5987 4.73136 11.0517C4.73136 10.5046 4.28636 10.0598 3.73936 10.0598Z" fill="#303045"/>
    <path d="M12.6871 11.4361H6.51137C6.29904 11.4361 6.12695 11.2639 6.12695 11.0517C6.12695 10.8394 6.29904 10.6672 6.51137 10.6672H12.6871C12.8994 10.6672 13.0715 10.8394 13.0715 11.0517C13.0715 11.2639 12.8994 11.4361 12.6871 11.4361Z" fill="#303045"/>
    <path d="M2.36301 11.4361H0.384421C0.172085 11.4361 0 11.2639 0 11.0516C0 10.8394 0.172085 10.6672 0.384421 10.6672H2.36301C2.57535 10.6672 2.74743 10.8394 2.74743 11.0516C2.74743 11.2639 2.57535 11.4361 2.36301 11.4361Z" fill="#303045"/>
</svg>