<svg id="Layer_1" data-name="Layer 1" xmlns="http://www.w3.org/2000/svg" viewBox="0 0 770.11 769.75">
    <title>Farmako only Logo dark</title>
    <path d="M126.31,191.22a90.56,90.56,0,1,0-90.58-90.56A90.56,90.56,0,0,0,126.31,191.22Z"
        transform="translate(-35.73 -10.11)" style="fill:#282845" />
    <path d="M715.31,191.22a90.56,90.56,0,0,0,0-181.11h-295a90.56,90.56,0,1,0,0,181.11Z"
        transform="translate(-35.73 -10.11)" style="fill:#282845" />
    <path d="M421.31,485.22a90.56,90.56,0,0,0,0-181.11h-295a90.56,90.56,0,1,0,0,181.11Z"
        transform="translate(-35.73 -10.11)" style="fill:#282845" />
    <path d="M126.31,779.86a90.56,90.56,0,1,0-90.58-90.55A90.55,90.55,0,0,0,126.31,779.86Z"
        transform="translate(-35.73 -10.11)" style="fill:#282845" />
    <path d="M420.5,779.86A90.56,90.56,0,1,0,330,689.31,90.55,90.55,0,0,0,420.5,779.86Z"
        transform="translate(-35.73 -10.11)" style="fill:#607aff" />
    <path d="M714.84,779.86a90.56,90.56,0,1,0-90.53-90.55A90.56,90.56,0,0,0,714.84,779.86Z"
        transform="translate(-35.73 -10.11)" style="fill:#607aff" />
    <path d="M714.84,485.58A90.56,90.56,0,1,0,624.31,395,90.56,90.56,0,0,0,714.84,485.58Z"
        transform="translate(-35.73 -10.11)" style="fill:#607aff" />
</svg>