<svg id="Layer_1" data-name="Layer 1" xmlns="http://www.w3.org/2000/svg" viewBox="0 0 770.11 769.75"><title>Farmako only Logo Light</title><path d="M90.31,181.13A90.56,90.56,0,1,0-.27,90.58,90.55,90.55,0,0,0,90.31,181.13Z" transform="translate(0.27 -0.02)" style="fill:#fff"/><path d="M679.31,181.13A90.56,90.56,0,0,0,679.31,0h-295a90.56,90.56,0,1,0,0,181.11Z" transform="translate(0.27 -0.02)" style="fill:#fff"/><path d="M385.31,475.13a90.56,90.56,0,0,0,0-181.11h-295a90.56,90.56,0,1,0,0,181.11Z" transform="translate(0.27 -0.02)" style="fill:#fff"/><path d="M90.31,769.77A90.55,90.55,0,1,0-.27,679.22,90.55,90.55,0,0,0,90.31,769.77Z" transform="translate(0.27 -0.02)" style="fill:#fff"/><path d="M384.5,769.77A90.55,90.55,0,1,0,294,679.22,90.55,90.55,0,0,0,384.5,769.77Z" transform="translate(0.27 -0.02)" style="fill:#607aff"/><path d="M678.84,769.77a90.55,90.55,0,1,0-90.53-90.55A90.56,90.56,0,0,0,678.84,769.77Z" transform="translate(0.27 -0.02)" style="fill:#607aff"/><path d="M678.84,475.49a90.56,90.56,0,1,0-90.53-90.55A90.56,90.56,0,0,0,678.84,475.49Z" transform="translate(0.27 -0.02)" style="fill:#607aff"/></svg>