<svg id="Layer_1" data-name="Layer 1" xmlns="http://www.w3.org/2000/svg" viewBox="0 0 3985.27 769.75"><title>farmako logo with text dark</title><path d="M302.31,372.22a90.56,90.56,0,1,0-90.58-90.56A90.56,90.56,0,0,0,302.31,372.22Z" transform="translate(-211.73 -191.11)" style="fill:#282845"/><path d="M891.31,372.22a90.56,90.56,0,0,0,0-181.11h-295a90.56,90.56,0,1,0,0,181.11Z" transform="translate(-211.73 -191.11)" style="fill:#282845"/><path d="M597.31,666.22a90.56,90.56,0,0,0,0-181.11h-295a90.56,90.56,0,1,0,0,181.11Z" transform="translate(-211.73 -191.11)" style="fill:#282845"/><path d="M302.31,960.86a90.56,90.56,0,1,0-90.58-90.55A90.55,90.55,0,0,0,302.31,960.86Z" transform="translate(-211.73 -191.11)" style="fill:#282845"/><path d="M596.5,960.86A90.56,90.56,0,1,0,506,870.31,90.55,90.55,0,0,0,596.5,960.86Z" transform="translate(-211.73 -191.11)" style="fill:#607aff"/><path d="M890.84,960.86a90.56,90.56,0,1,0-90.53-90.55A90.56,90.56,0,0,0,890.84,960.86Z" transform="translate(-211.73 -191.11)" style="fill:#607aff"/><path d="M890.84,666.58A90.56,90.56,0,1,0,800.31,576,90.56,90.56,0,0,0,890.84,666.58Z" transform="translate(-211.73 -191.11)" style="fill:#607aff"/><path d="M1421.81,379.56q-84.21-6.36-84.21,67.54v4h84.21V549.6H1337.6V848.35H1235.08V549.6H1177.9V451.07h57.18v-4q0-84.23,46.91-127.92T1421.81,281ZM1756,451.07h102.48V848.35H1756V801.47q-46.1,58-129.54,58-79.41,0-136.66-60.39-56.4-61.17-56.4-149.37t56.4-148.58Q1547,439.94,1626.45,440q83.41,0,129.54,58ZM1566.87,730.75q31,31,78.65,31t78.69-31Q1756,699,1756,649.71t-31.78-80.25q-31-31.79-78.69-31.78t-78.65,31.78q-31,31-31,80.25T1566.87,730.75Zm487-211.35q14.31-38.13,46.92-57.2,33.3-19.08,73.88-19.07V557.54q-46.89-5.56-84.25,19.07-36.53,24.63-36.55,81.84v189.9H1951.42V451.07h102.47ZM2674,440q68.32,0,108.86,44.49,41.31,44.49,41.31,119.18V848.35H2721.66V610.78q0-35.76-17.45-55.62t-49.27-19.86q-35,0-54.82,23-19.08,23-19.06,66.74V848.35H2478.54V610.78q0-35.76-17.49-55.62t-49.23-19.86q-34.17,0-54.82,23-19.87,23-19.89,66.74V848.35H2234.63V451.07h102.48v42.11q35.8-53.24,110.43-53.23,73.13,0,108.07,57.2Q2595.36,440,2674,440Zm539.14,11.12h102.52V848.35H3213.15V801.47q-46.11,58-129.5,58-79.49,0-136.66-60.39-56.4-61.17-56.4-149.37T2947,501.13q57.18-61.19,136.66-61.18,83.42,0,129.5,58ZM3024.06,730.75q31,31,78.65,31t78.65-31q31.82-31.79,31.79-81t-31.79-80.25q-30.95-31.79-78.65-31.78t-78.65,31.78q-31,31-31,80.25T3024.06,730.75Zm750.83,117.6H3655.71L3511.09,668V848.35H3408.62V292.17h102.47v333.7l136.67-174.8h122.37L3610.42,647.33Zm360.9-49.27q-61.18,60.39-149.34,60.39t-149.39-60.39q-60.39-61.17-60.37-149.37t60.37-148.58q61.18-61.19,149.39-61.18t149.34,61.18Q4197,561.52,4197,649.71T4135.79,799.08Zm-226.42-70.71q31,31,77.08,31t77-31q31-31,31-78.66t-31-78.66q-30.95-31-77-31t-77.08,31q-30.23,31-30.21,78.66T3909.37,728.37Z" transform="translate(-211.73 -191.11)" style="fill:#303045"/></svg>