<svg width="22" height="21" viewBox="0 0 22 21" fill="none" xmlns="http://www.w3.org/2000/svg">
<g filter="url(#filter0_i)">
<path d="M16.6043 2.43945H4.52616C2.57872 2.43945 1 4.02284 1 5.97604V16.4638C1 18.4171 2.57872 20.0004 4.52616 20.0004H16.6043C18.5517 20.0004 20.1304 18.4171 20.1304 16.4638V5.97604C20.1304 4.02284 18.5517 2.43945 16.6043 2.43945Z" stroke="#A9A9B5" stroke-width="2"/>
<path d="M19.7467 6.42285H1.38635V8.04887H19.7467V6.42285Z" fill="#A9A9B5"/>
<path d="M6.57423 0.813008C6.57423 0.363996 6.2113 0 5.76361 0C5.31593 0 4.953 0.363996 4.953 0.813008V4.8374C4.953 5.28641 5.31593 5.65041 5.76361 5.65041C6.2113 5.65041 6.57423 5.28641 6.57423 4.8374V0.813008Z" fill="#A9A9B5"/>
<path d="M16.1394 0.813008C16.1394 0.363996 15.7765 0 15.3288 0C14.8811 0 14.5182 0.363996 14.5182 0.813008V4.8374C14.5182 5.28641 14.8811 5.65041 15.3288 5.65041C15.7765 5.65041 16.1394 5.28641 16.1394 4.8374V0.813008Z" fill="#A9A9B5"/>
</g>
<defs>
<filter id="filter0_i" x="0" y="0" width="21.1304" height="25.0004" filterUnits="userSpaceOnUse" color-interpolation-filters="sRGB">
<feFlood flood-opacity="0" result="BackgroundImageFix"/>
<feBlend mode="normal" in="SourceGraphic" in2="BackgroundImageFix" result="shape"/>
<feColorMatrix in="SourceAlpha" type="matrix" values="0 0 0 0 0 0 0 0 0 0 0 0 0 0 0 0 0 0 127 0" result="hardAlpha"/>
<feOffset dy="4"/>
<feGaussianBlur stdDeviation="2"/>
<feComposite in2="hardAlpha" operator="arithmetic" k2="-1" k3="1"/>
<feColorMatrix type="matrix" values="0 0 0 0 0 0 0 0 0 0 0 0 0 0 0 0 0 0 0.25 0"/>
<feBlend mode="normal" in2="shape" result="effect1_innerShadow"/>
</filter>
</defs>
</svg>
