<svg width="24" height="22" viewBox="0 0 24 22" fill="none" xmlns="http://www.w3.org/2000/svg">
<path d="M12.0004 15.7333C14.0623 15.7333 15.7338 14.0618 15.7338 11.9999C15.7338 9.93807 14.0623 8.2666 12.0004 8.2666C9.93856 8.2666 8.26709 9.93807 8.26709 11.9999C8.26709 14.0618 9.93856 15.7333 12.0004 15.7333Z" fill="#53536A"/>
<path d="M8.50016 0.333496L6.36516 2.66683H2.66683C1.3835 2.66683 0.333496 3.71683 0.333496 5.00016V19.0002C0.333496 20.2835 1.3835 21.3335 2.66683 21.3335H21.3335C22.6168 21.3335 23.6668 20.2835 23.6668 19.0002V5.00016C23.6668 3.71683 22.6168 2.66683 21.3335 2.66683H17.6352L15.5002 0.333496H8.50016ZM12.0002 17.8335C8.78016 17.8335 6.16683 15.2202 6.16683 12.0002C6.16683 8.78016 8.78016 6.16683 12.0002 6.16683C15.2202 6.16683 17.8335 8.78016 17.8335 12.0002C17.8335 15.2202 15.2202 17.8335 12.0002 17.8335Z" fill="#53536A"/>
</svg>
