<svg width="54" height="47" viewBox="0 0 54 47" fill="none" xmlns="http://www.w3.org/2000/svg">
    <path
        d="M25.3998 40.0365C27.252 42.815 27.3372 45.8365 27.1482 47H28.1121C28.1121 46.1867 28.2273 44.4093 28.6884 43.8056C29.2647 43.051 29.6537 41.4628 29.9221 40.4219C30.1906 39.3811 30.4207 39.0362 32.4149 36.7612C34.4092 34.4862 34.9545 34.5433 36.5425 34.5433C38.582 34.5433 40.0108 36.1546 44.2823 36.1546C48.5537 36.1546 51.8671 34.6689 51.8671 33.0902C51.8671 31.5115 50.8691 28.8746 44.2823 28.8746C37.6954 28.8746 36.418 32.3009 34.0627 34.3345C32.1784 35.9615 30.1556 38.6033 29.3796 39.7209C29.595 38.1302 30.2494 34.3345 31.5015 31.1349C32.7536 27.9352 36.3925 26.0091 37.8793 25.2644C39.3662 24.5198 43.3572 24.133 45.431 24.133C47.5048 24.133 54 23.6301 54 21.4638C54 19.2974 52.7088 16.3574 45.431 16.3574C38.1532 16.3574 34.1622 22.5082 33.3796 24.133C32.5971 25.7577 31.8537 28.8746 30.8755 31.1349C30.0929 32.943 29.0914 37.6123 28.6884 39.7209C28.8378 37.2533 28.8451 35.9985 28.6884 32.8245C28.557 30.1622 28.066 27.3325 28.0381 26.0091C28.0103 24.6856 29.6129 21.4147 29.6129 18.839C29.6129 16.2633 27.7003 13.2838 26.8669 11.3234C26.0336 9.36296 25.9789 6.33463 25.5486 4.16008C25.1183 1.98552 23.0622 0 21.1974 0C19.3327 0 16.8084 0.518619 16.8084 3.80523C16.8084 7.09185 19.0108 9.10489 20.1743 11.3234C21.3378 13.5418 22.0665 16.3696 22.0665 19.0713C22.0665 21.7729 26.1986 25.2644 26.8669 26.0091C27.5353 26.7537 27.8637 29.4584 28.1121 32.8245C28.3108 35.5175 28.1949 38.5441 28.1121 39.7209C28.0879 39.8261 27.9539 39.731 27.6111 38.5088C27.1827 36.9812 26.2638 34.6226 25.164 31.9838C24.0641 29.3449 23.2642 27.1097 22.4976 25.2644C21.7311 23.4191 20.3979 21.1125 19.4647 19.8933C18.5315 18.6741 17.2983 17.422 16.1984 16.6971C15.0986 15.9721 11.8656 14.9507 9.8659 14.9507C7.86615 14.9507 0 14.5224 0 18.839C0 23.1556 9.23217 23.7488 12.7317 23.7488C16.2313 23.7488 19.985 26.8573 21.945 29.3273C23.905 31.7973 24.7829 33.652 25.5494 35.1935C26.316 36.7351 26.902 38.5344 27.6111 40.4219C28.1784 41.932 27.8475 43.0825 27.6111 43.469C27.5566 42.687 26.7383 40.6107 26.0292 39.7209C25.3201 38.831 24.7442 37.8229 23.8238 36.1546C22.9034 34.4863 21.5995 32.9317 21.0242 31.9838C20.4489 31.0359 19.3751 29.8605 18.1479 28.8746C16.9206 27.8888 15.0798 26.6374 10.8995 26.6374C6.71923 26.6374 5.45364 29.557 4.60992 31.0737C3.76619 32.5903 1.27362 32.7042 1.27362 33.652C1.27362 34.5998 2.84657 35.4341 4.87917 35.4341C6.91178 35.4341 8.36911 34.3345 11.092 33.652C13.815 32.9695 17.3043 32.7042 18.8 32.7042C20.2957 32.7042 20.9862 33.2729 21.945 34.3345C22.9038 35.3962 23.0845 36.5634 25.3998 40.0365Z"
        fill="#EFF2FF" />
</svg>