<svg width="16" height="16" viewBox="0 0 16 16" fill="none" xmlns="http://www.w3.org/2000/svg">
<path d="M1 7C0.447715 7 -9.72983e-10 7.44772 0 8C9.72983e-10 8.55228 0.447715 9 1 9L1 7ZM14.9763 8.70711C15.3669 8.31658 15.3669 7.68342 14.9763 7.29289L8.61238 0.928932C8.22186 0.538408 7.58869 0.538408 7.19817 0.928932C6.80764 1.31946 6.80764 1.95262 7.19817 2.34315L12.855 8L7.19817 13.6569C6.80764 14.0474 6.80764 14.6805 7.19817 15.0711C7.58869 15.4616 8.22186 15.4616 8.61238 15.0711L14.9763 8.70711ZM1 9L14.2692 9L14.2692 7L1 7L1 9Z" fill="#F5F7FF"/>
</svg>
