<svg width="21" height="20" viewBox="0 0 21 20" fill="none" xmlns="http://www.w3.org/2000/svg">
<defs>
<linearGradient id="paint0_linear_4140_39512" x1="12.6976" y1="4.89404" x2="12.817" y2="15.4547" gradientUnits="userSpaceOnUse">
<stop stop-color="#282845"/>
<stop offset="1" stop-color="#E9E9EC"/>
</linearGradient>
<linearGradient id="paint1_linear_4140_39512" x1="10.9992" y1="-4.54545" x2="11.4537" y2="30" gradientUnits="userSpaceOnUse">
<stop stop-color="#282845"/>
<stop offset="1" stop-color="#E9E9EC"/>
</linearGradient>
<linearGradient id="paint2_linear_4140_39512" x1="2.5" y1="10" x2="2.5" y2="17" gradientUnits="userSpaceOnUse">
<stop stop-color="#99E0C7"/>
<stop offset="1" stop-color="#99E0C7" stop-opacity="0"/>
</linearGradient>
</defs>
<path d="M10.999 4.89404C10.8332 4.89404 10.6743 4.95989 10.5571 5.0771C10.4399 5.19431 10.374 5.35328 10.374 5.51904V10.969L14.0612 13.469C14.1996 13.557 14.367 13.587 14.5273 13.5526C14.6876 13.5182 14.828 13.4222 14.9182 13.2853C15.0084 13.1483 15.0411 12.9814 15.0094 12.8206C14.9777 12.6597 14.8841 12.5177 14.7487 12.4253L11.6239 10.3065V5.51904C11.6239 5.35328 11.5581 5.19431 11.4409 5.0771C11.3237 4.95989 11.1647 4.89404 10.999 4.89404Z" fill="url(#paint0_linear_4140_39512)"/>
<path d="M10.9992 1.42557e-07C9.21384 0.00625229 7.46237 0.48776 5.92473 1.39505C4.38708 2.30234 3.11869 3.60269 2.24989 5.1625V2C2.24989 1.83424 2.18405 1.67527 2.06685 1.55806C1.94965 1.44085 1.79069 1.375 1.62495 1.375C1.4592 1.375 1.30024 1.44085 1.18304 1.55806C1.06584 1.67527 1 1.83424 1 2V7.5H6.49954C6.66528 7.5 6.82424 7.43415 6.94144 7.31694C7.05864 7.19973 7.12448 7.04076 7.12448 6.875C7.12448 6.70924 7.05864 6.55027 6.94144 6.43306C6.82424 6.31585 6.66528 6.25 6.49954 6.25H3.09357C3.88178 4.58637 5.17457 3.21374 6.78798 2.32746C8.40138 1.44117 10.2532 1.08637 12.0799 1.31356C13.9066 1.54074 15.6151 2.33834 16.9623 3.59284C18.3095 4.84734 19.2268 6.49483 19.5835 8.30085C19.9403 10.1069 19.7184 11.9794 18.9494 13.652C18.1804 15.3246 16.9035 16.7121 15.3004 17.6169C13.6973 18.5217 11.8497 18.8978 10.0205 18.6916C8.19131 18.4855 6.47371 17.7076 5.11215 16.4688C5.05142 16.4133 4.98037 16.3705 4.90307 16.3425C4.82576 16.3146 4.7437 16.3021 4.66159 16.3059C4.57947 16.3097 4.49891 16.3296 4.42449 16.3645C4.35007 16.3994 4.28325 16.4486 4.22785 16.5094C4.17246 16.5701 4.12956 16.6412 4.10162 16.7185C4.07369 16.7958 4.06125 16.8779 4.06502 16.96C4.06879 17.0421 4.0887 17.1227 4.12361 17.1971C4.15852 17.2715 4.20774 17.3383 4.26847 17.3937C5.46972 18.4877 6.91942 19.2725 8.49212 19.6801C10.0648 20.0878 11.7132 20.1061 13.2945 19.7334C14.8759 19.3606 16.3426 18.6082 17.5678 17.5411C18.793 16.474 19.7397 15.1244 20.3261 13.6091C20.9124 12.0938 21.1208 10.4584 20.933 8.8445C20.7453 7.23057 20.1672 5.68669 19.2486 4.34647C18.3301 3.00625 17.0989 1.91004 15.6615 1.15271C14.2241 0.395373 12.6238 -0.000274183 10.9992 1.42557e-07V1.42557e-07Z" fill="url(#paint1_linear_4140_39512)"/>
<circle cx="2.5" cy="12.5" r="2.5" fill="url(#paint2_linear_4140_39512)"/>
</svg>
